<svg width="35" height="35" viewBox="0 0 35 35" fill="none" xmlns="http://www.w3.org/2000/svg">
<path fill-rule="evenodd" clip-rule="evenodd" d="M17.5004 27.8906C15.2452 27.8914 13.0582 27.1178 11.3051 25.6993C9.55196 24.2808 8.33905 22.3033 7.86923 20.0977C7.39941 17.892 7.70116 15.5919 8.72401 13.5821C9.74687 11.5723 11.4288 9.97457 13.4885 9.05625L12.2526 6.01344C9.48873 7.21967 7.22449 9.3407 5.84048 12.0199C4.45647 14.6991 4.0371 17.7732 4.65286 20.7252C5.26863 23.6772 6.88199 26.3273 9.2217 28.2297C11.5614 30.1322 14.4848 31.1712 17.5004 31.1719C20.2397 31.172 22.9104 30.315 25.1382 28.721C27.3661 27.1271 29.0393 24.876 29.9235 22.2832C30.8077 19.6905 30.8585 16.8861 30.0687 14.2631C29.279 11.6401 27.6884 9.32986 25.5197 7.65625L29.5316 7.65625L29.5316 4.375L20.7816 4.375L19.141 6.01562L19.141 13.6719L22.4222 13.6719L22.4222 9.52C24.2998 10.603 25.7675 12.2755 26.5974 14.2779C27.4273 16.2803 27.5731 18.5007 27.0121 20.5944C26.4512 22.6881 25.2148 24.5381 23.495 25.8574C21.7751 27.1766 19.6679 27.8914 17.5004 27.8906V27.8906Z" fill="white" stroke="white"/>
</svg>
