<svg width="35" height="35" viewBox="0 0 35 35" fill="none" xmlns="http://www.w3.org/2000/svg">
<path fill-rule="evenodd" clip-rule="evenodd" d="M17.4994 27.8906C15.2442 27.8914 13.0572 27.1178 11.3041 25.6993C9.55098 24.2808 8.33808 22.3033 7.86825 20.0977C7.39843 17.892 7.70018 15.5919 8.72304 13.5821C9.74589 11.5723 11.4278 9.97457 13.4875 9.05625L12.2516 6.01344C9.48776 7.21967 7.22351 9.3407 5.8395 12.0199C4.45549 14.6991 4.03612 17.7732 4.65189 20.7252C5.26765 23.6772 6.88101 26.3273 9.22072 28.2297C11.5604 30.1322 14.4838 31.1712 17.4994 31.1719C20.2387 31.172 22.9094 30.315 25.1373 28.721C27.3651 27.1271 29.0383 24.876 29.9225 22.2832C30.8067 19.6905 30.8575 16.8861 30.0678 14.2631C29.278 11.6401 27.6874 9.32986 25.5188 7.65625L29.5306 7.65625L29.5306 4.375L20.7806 4.375L19.14 6.01562L19.14 13.6719L22.4213 13.6719L22.4213 9.52C24.2989 10.603 25.7665 12.2755 26.5964 14.2779C27.4263 16.2803 27.5721 18.5007 27.0111 20.5944C26.4502 22.6881 25.2139 24.5381 23.494 25.8574C21.7742 27.1767 19.667 27.8914 17.4994 27.8906Z" fill="white"/>
</svg>
